<mxfile host="app.diagrams.net" modified="2023-11-22T08:23:29.541Z" agent="Mozilla/5.0 (Windows NT 10.0; Win64; x64; rv:109.0) Gecko/20100101 Firefox/119.0" etag="kkQOX7EcMQwwaPPdlcgC" version="22.1.3" type="github">
  <diagram id="C5RBs43oDa-KdzZeNtuy" name="Page-1">
    <mxGraphModel dx="1050" dy="605" grid="1" gridSize="10" guides="1" tooltips="1" connect="1" arrows="1" fold="1" page="1" pageScale="1" pageWidth="827" pageHeight="1169" math="0" shadow="0">
      <root>
        <mxCell id="WIyWlLk6GJQsqaUBKTNV-0" />
        <mxCell id="WIyWlLk6GJQsqaUBKTNV-1" parent="WIyWlLk6GJQsqaUBKTNV-0" />
        <mxCell id="8W2gkJlQxePXEYdsoPsb-17" value="" style="edgeStyle=orthogonalEdgeStyle;rounded=0;orthogonalLoop=1;jettySize=auto;html=1;" edge="1" parent="WIyWlLk6GJQsqaUBKTNV-1" source="WIyWlLk6GJQsqaUBKTNV-3" target="8W2gkJlQxePXEYdsoPsb-0">
          <mxGeometry relative="1" as="geometry" />
        </mxCell>
        <mxCell id="WIyWlLk6GJQsqaUBKTNV-3" value="녹조 발생 원인 분석" style="rounded=0;whiteSpace=wrap;html=1;fontSize=12;glass=0;strokeWidth=1;shadow=0;" parent="WIyWlLk6GJQsqaUBKTNV-1" vertex="1">
          <mxGeometry x="160" y="130" width="120" height="40" as="geometry" />
        </mxCell>
        <mxCell id="8W2gkJlQxePXEYdsoPsb-9" value="" style="edgeStyle=orthogonalEdgeStyle;rounded=0;orthogonalLoop=1;jettySize=auto;html=1;" edge="1" parent="WIyWlLk6GJQsqaUBKTNV-1" source="8W2gkJlQxePXEYdsoPsb-0" target="8W2gkJlQxePXEYdsoPsb-8">
          <mxGeometry relative="1" as="geometry" />
        </mxCell>
        <mxCell id="8W2gkJlQxePXEYdsoPsb-22" value="" style="edgeStyle=orthogonalEdgeStyle;rounded=0;orthogonalLoop=1;jettySize=auto;html=1;" edge="1" parent="WIyWlLk6GJQsqaUBKTNV-1" source="8W2gkJlQxePXEYdsoPsb-0" target="8W2gkJlQxePXEYdsoPsb-21">
          <mxGeometry relative="1" as="geometry" />
        </mxCell>
        <mxCell id="8W2gkJlQxePXEYdsoPsb-0" value="데이터 수집" style="whiteSpace=wrap;html=1;" vertex="1" parent="WIyWlLk6GJQsqaUBKTNV-1">
          <mxGeometry x="180" y="220" width="80" height="30" as="geometry" />
        </mxCell>
        <mxCell id="8W2gkJlQxePXEYdsoPsb-19" value="" style="edgeStyle=orthogonalEdgeStyle;rounded=0;orthogonalLoop=1;jettySize=auto;html=1;" edge="1" parent="WIyWlLk6GJQsqaUBKTNV-1" source="8W2gkJlQxePXEYdsoPsb-8" target="8W2gkJlQxePXEYdsoPsb-18">
          <mxGeometry relative="1" as="geometry" />
        </mxCell>
        <mxCell id="8W2gkJlQxePXEYdsoPsb-8" value="데이터 전처리" style="whiteSpace=wrap;html=1;" vertex="1" parent="WIyWlLk6GJQsqaUBKTNV-1">
          <mxGeometry x="110" y="290" width="80" height="30" as="geometry" />
        </mxCell>
        <mxCell id="8W2gkJlQxePXEYdsoPsb-16" value="" style="edgeStyle=orthogonalEdgeStyle;rounded=0;orthogonalLoop=1;jettySize=auto;html=1;" edge="1" parent="WIyWlLk6GJQsqaUBKTNV-1" source="8W2gkJlQxePXEYdsoPsb-10" target="WIyWlLk6GJQsqaUBKTNV-3">
          <mxGeometry relative="1" as="geometry" />
        </mxCell>
        <mxCell id="8W2gkJlQxePXEYdsoPsb-10" value="시작" style="rounded=1;whiteSpace=wrap;html=1;" vertex="1" parent="WIyWlLk6GJQsqaUBKTNV-1">
          <mxGeometry x="160" y="50" width="120" height="30" as="geometry" />
        </mxCell>
        <mxCell id="8W2gkJlQxePXEYdsoPsb-25" value="" style="edgeStyle=orthogonalEdgeStyle;rounded=0;orthogonalLoop=1;jettySize=auto;html=1;" edge="1" parent="WIyWlLk6GJQsqaUBKTNV-1" source="8W2gkJlQxePXEYdsoPsb-18" target="8W2gkJlQxePXEYdsoPsb-24">
          <mxGeometry relative="1" as="geometry" />
        </mxCell>
        <mxCell id="8W2gkJlQxePXEYdsoPsb-18" value="회귀 학습" style="whiteSpace=wrap;html=1;" vertex="1" parent="WIyWlLk6GJQsqaUBKTNV-1">
          <mxGeometry x="180" y="360" width="80" height="30" as="geometry" />
        </mxCell>
        <mxCell id="8W2gkJlQxePXEYdsoPsb-23" value="" style="edgeStyle=orthogonalEdgeStyle;rounded=0;orthogonalLoop=1;jettySize=auto;html=1;" edge="1" parent="WIyWlLk6GJQsqaUBKTNV-1" source="8W2gkJlQxePXEYdsoPsb-21" target="8W2gkJlQxePXEYdsoPsb-18">
          <mxGeometry relative="1" as="geometry" />
        </mxCell>
        <mxCell id="8W2gkJlQxePXEYdsoPsb-21" value="렌덤포레스트 모델 구성" style="whiteSpace=wrap;html=1;" vertex="1" parent="WIyWlLk6GJQsqaUBKTNV-1">
          <mxGeometry x="240" y="290" width="130" height="30" as="geometry" />
        </mxCell>
        <mxCell id="8W2gkJlQxePXEYdsoPsb-24" value="&lt;div&gt;RMSE 값이&lt;/div&gt;&lt;div&gt;이하인가?&lt;br&gt;&lt;/div&gt;" style="rhombus;whiteSpace=wrap;html=1;" vertex="1" parent="WIyWlLk6GJQsqaUBKTNV-1">
          <mxGeometry x="155" y="420" width="130" height="80" as="geometry" />
        </mxCell>
        <mxCell id="8W2gkJlQxePXEYdsoPsb-26" value="" style="edgeStyle=segmentEdgeStyle;endArrow=classic;html=1;curved=0;rounded=0;endSize=8;startSize=8;exitX=1;exitY=0.5;exitDx=0;exitDy=0;entryX=1;entryY=0.5;entryDx=0;entryDy=0;" edge="1" parent="WIyWlLk6GJQsqaUBKTNV-1" source="8W2gkJlQxePXEYdsoPsb-24" target="WIyWlLk6GJQsqaUBKTNV-3">
          <mxGeometry width="50" height="50" relative="1" as="geometry">
            <mxPoint x="260" y="460" as="sourcePoint" />
            <mxPoint x="285" y="150" as="targetPoint" />
            <Array as="points">
              <mxPoint x="385" y="460" />
              <mxPoint x="385" y="150" />
            </Array>
          </mxGeometry>
        </mxCell>
        <mxCell id="8W2gkJlQxePXEYdsoPsb-27" value="아니오" style="text;strokeColor=none;fillColor=none;align=left;verticalAlign=middle;spacingLeft=4;spacingRight=4;overflow=hidden;points=[[0,0.5],[1,0.5]];portConstraint=eastwest;rotatable=0;whiteSpace=wrap;html=1;fontSize=10;" vertex="1" parent="WIyWlLk6GJQsqaUBKTNV-1">
          <mxGeometry x="285" y="430" width="80" height="30" as="geometry" />
        </mxCell>
      </root>
    </mxGraphModel>
  </diagram>
</mxfile>
